<?xml version="1.0" standalone="no"?><!-- Generator: Gravit.io --><svg xmlns="http://www.w3.org/2000/svg" xmlns:xlink="http://www.w3.org/1999/xlink" style="isolation:isolate" viewBox="0 0 64 64" width="64" height="64"><g><rect x="10.846" y="36.231" width="8.462" height="4.231" transform="matrix(1,0,0,1,0,0)" fill="rgb(47,54,64)"/><rect x="44.692" y="36.231" width="8.462" height="4.231" transform="matrix(1,0,0,1,0,0)" fill="rgb(47,54,64)"/><path d="M 18.361 17.192 L 45.639 17.192 C 46.284 17.192 46.808 17.716 46.808 18.361 L 46.808 47.754 C 46.808 48.399 46.284 48.923 45.639 48.923 L 18.361 48.923 C 17.716 48.923 17.192 48.399 17.192 47.754 L 17.192 18.361 C 17.192 17.716 17.716 17.192 18.361 17.192 Z" style="stroke:none;fill:#00A8FF;stroke-miterlimit:10;"/><path d="M 32 27.769 L 32 27.769 C 37.838 27.769 42.577 32.509 42.577 38.346 L 42.577 48.923 C 42.577 54.761 37.838 59.5 32 59.5 L 32 59.5 C 26.162 59.5 21.423 54.761 21.423 48.923 L 21.423 38.346 C 21.423 32.509 26.162 27.769 32 27.769 Z" style="stroke:none;fill:#00A8FF;stroke-miterlimit:10;"/><g><path d="M 15.077 10.846 L 29.885 10.846 L 29.885 27.769 L 12.962 27.769 L 12.962 12.962 C 12.962 11.794 13.909 10.846 15.077 10.846 Z" style="stroke:none;fill:#2F3640;stroke-miterlimit:10;"/><path d="M 15.077 10.846 L 29.885 10.846 L 29.885 27.769 L 12.962 27.769 L 12.962 12.962 C 12.962 11.794 13.909 10.846 15.077 10.846 Z" style="fill:none;stroke:#00A8FF;stroke-width:1;stroke-linecap:square;stroke-miterlimit:2;"/><path d="M 34.115 10.846 L 48.923 10.846 C 50.091 10.846 51.038 11.794 51.038 12.962 L 51.038 27.769 L 34.115 27.769 L 34.115 10.846 Z" style="stroke:none;fill:#2F3640;stroke-linecap:square;stroke-miterlimit:2;"/><path d="M 34.115 10.846 L 48.923 10.846 C 50.091 10.846 51.038 11.794 51.038 12.962 L 51.038 27.769 L 34.115 27.769 L 34.115 10.846 Z" style="fill:none;stroke:#00A8FF;stroke-width:1;stroke-linecap:square;stroke-miterlimit:2;"/><g><defs><filter id="JSA5ZGWBje8TU9N5UDE3aFbzIw27frwU" x="-200%" y="-200%" width="400%" height="400%" filterUnits="objectBoundingBox" color-interpolation-filters="sRGB"><feGaussianBlur xmlns="http://www.w3.org/2000/svg" in="SourceGraphic" stdDeviation="2.146804531419514"/><feOffset xmlns="http://www.w3.org/2000/svg" dx="0" dy="0" result="pf_100_offsetBlur"/><feFlood xmlns="http://www.w3.org/2000/svg" flood-color="#000000" flood-opacity="0.2"/><feComposite xmlns="http://www.w3.org/2000/svg" in2="pf_100_offsetBlur" operator="in" result="pf_100_dropShadow"/><feBlend xmlns="http://www.w3.org/2000/svg" in="SourceGraphic" in2="pf_100_dropShadow" mode="normal"/></filter></defs><g filter="url(#JSA5ZGWBje8TU9N5UDE3aFbzIw27frwU)"><path d="M 16.102 4.5 L 27.299 4.5 L 27.299 10 L 15.077 10 L 15.077 5.525 C 15.077 4.959 15.536 4.5 16.102 4.5 Z" style="stroke:none;fill:#2BD5FF;stroke-linecap:square;stroke-miterlimit:2;"/><path d="M 16.102 4.5 L 27.299 4.5 L 27.299 10 L 15.077 10 L 15.077 5.525 C 15.077 4.959 15.536 4.5 16.102 4.5 Z" style="fill:none;stroke:#00A8FF;stroke-width:1;stroke-linecap:square;stroke-miterlimit:2;"/></g><defs><filter id="FANwBo9UMeINcF52BgNXqy3ojTSouSbY" x="-200%" y="-200%" width="400%" height="400%" filterUnits="objectBoundingBox" color-interpolation-filters="sRGB"><feGaussianBlur xmlns="http://www.w3.org/2000/svg" in="SourceGraphic" stdDeviation="2.146804531419514"/><feOffset xmlns="http://www.w3.org/2000/svg" dx="0" dy="0" result="pf_100_offsetBlur"/><feFlood xmlns="http://www.w3.org/2000/svg" flood-color="#000000" flood-opacity="0.2"/><feComposite xmlns="http://www.w3.org/2000/svg" in2="pf_100_offsetBlur" operator="in" result="pf_100_dropShadow"/><feBlend xmlns="http://www.w3.org/2000/svg" in="SourceGraphic" in2="pf_100_dropShadow" mode="normal"/></filter></defs><g filter="url(#FANwBo9UMeINcF52BgNXqy3ojTSouSbY)"><path d="M 36.231 4.5 L 47.428 4.5 C 47.994 4.5 48.453 4.959 48.453 5.525 L 48.453 10 L 36.231 10 L 36.231 4.5 Z" style="stroke:none;fill:#2BD5FF;stroke-linecap:square;stroke-miterlimit:2;"/><path d="M 36.231 4.5 L 47.428 4.5 C 47.994 4.5 48.453 4.959 48.453 5.525 L 48.453 10 L 36.231 10 L 36.231 4.5 Z" style="fill:none;stroke:#00A8FF;stroke-width:1;stroke-linecap:square;stroke-miterlimit:2;"/></g></g></g><g><path d="M 32 28.562 L 50.245 28.562 L 50.245 45.954 C 50.245 47.264 49.182 48.328 47.871 48.328 L 32 48.328 L 32 28.562 Z" style="stroke:none;fill:#2F3640;stroke-linecap:square;stroke-miterlimit:2;"/><path d="M 13.755 28.562 L 32 28.562 L 32 48.328 L 16.129 48.328 C 14.818 48.328 13.755 47.264 13.755 45.954 L 13.755 28.562 Z" style="stroke:none;fill:#2F3640;stroke-linecap:square;stroke-miterlimit:2;"/></g><g><path d="M 32 29.885 L 48.923 29.885 L 48.923 44.692 C 48.923 45.86 47.975 46.808 46.808 46.808 L 32 46.808 L 32 29.885 Z" style="stroke:none;fill:#DCDDE1;stroke-linecap:square;stroke-miterlimit:2;"/><path d="M 15.077 29.885 L 32 29.885 L 32 46.808 L 17.192 46.808 C 16.025 46.808 15.077 45.86 15.077 44.692 L 15.077 29.885 Z" style="stroke:none;fill:#DCDDE1;stroke-linecap:square;stroke-miterlimit:2;"/></g><g><path d="M 4.5 34.115 L 12.962 34.115 L 12.962 51.038 L 5.996 51.038 C 5.17 51.038 4.5 50.368 4.5 49.543 L 4.5 34.115 Z" style="stroke:none;fill:#DCDDE1;stroke-linecap:square;stroke-miterlimit:2;"/><path d="M 4.5 46.808 L 12.962 46.808 L 12.962 51.038 L 6.615 51.038 C 5.448 51.038 4.5 50.091 4.5 48.923 L 4.5 46.808 Z" style="stroke:none;fill:#E84118;stroke-linecap:square;stroke-miterlimit:2;"/></g><path d="M 21.423 36.231 L 25.654 36.231 C 26.821 36.231 27.769 37.179 27.769 38.346 L 27.769 38.346 C 27.769 39.514 26.821 40.462 25.654 40.462 L 21.423 40.462 C 20.256 40.462 19.308 39.514 19.308 38.346 L 19.308 38.346 C 19.308 37.179 20.256 36.231 21.423 36.231 Z" style="stroke:none;fill:#2F3640;stroke-linecap:square;stroke-miterlimit:2;"/><path d="M 38.346 36.231 L 42.577 36.231 C 43.744 36.231 44.692 37.179 44.692 38.346 L 44.692 38.346 C 44.692 39.514 43.744 40.462 42.577 40.462 L 38.346 40.462 C 37.179 40.462 36.231 39.514 36.231 38.346 L 36.231 38.346 C 36.231 37.179 37.179 36.231 38.346 36.231 Z" style="stroke:none;fill:#2F3640;stroke-linecap:square;stroke-miterlimit:2;"/><g><path d="M 51.038 34.115 L 59.5 34.115 L 59.5 48.923 C 59.5 50.091 58.552 51.038 57.385 51.038 L 51.038 51.038 L 51.038 34.115 Z" style="stroke:none;fill:#DCDDE1;stroke-linecap:square;stroke-miterlimit:2;"/><path d="M 51.038 46.808 L 59.5 46.808 L 59.5 48.923 C 59.5 50.091 58.552 51.038 57.385 51.038 L 51.038 51.038 L 51.038 46.808 Z" style="stroke:none;fill:#E84118;stroke-linecap:square;stroke-miterlimit:2;"/></g></g></svg>