<?xml version="1.0" encoding="UTF-8" standalone="no"?><!-- Generator: Gravit.io --><svg xmlns="http://www.w3.org/2000/svg" xmlns:xlink="http://www.w3.org/1999/xlink" style="isolation:isolate" viewBox="0 0 64 64" width="64pt" height="64pt"><defs><clipPath id="_clipPath_UminosktCwEXNQ30Lt1rFGXrKvKpYGPw"><rect width="64" height="64"/></clipPath></defs><g clip-path="url(#_clipPath_UminosktCwEXNQ30Lt1rFGXrKvKpYGPw)"><g><path d=" M 48.065 36.017 Q 36.941 33.427 32 33.48 Q 27.059 33.533 15.935 36.017 L 15.935 32.635 Q 24.337 30.151 32 30.098 Q 39.663 30.045 48.065 32.635 L 48.065 36.017 Z " fill="rgb(131,149,167)" vector-effect="non-scaling-stroke" stroke-width="1" stroke="rgb(0,0,0)" stroke-linejoin="miter" stroke-linecap="square" stroke-miterlimit="3"/><path d=" M 24.39 22.488 L 21.008 25.447 L 21.008 52.504 L 24.39 55.886 L 24.39 22.488 Z " fill="rgb(95,39,205)" vector-effect="non-scaling-stroke" stroke-width="1" stroke="rgb(0,0,0)" stroke-linejoin="miter" stroke-linecap="square" stroke-miterlimit="3"/><path d=" M 39.61 22.488 L 42.992 25.447 L 42.992 52.504 L 39.61 55.886 L 39.61 22.488 Z " fill="rgb(95,39,205)" vector-effect="non-scaling-stroke" stroke-width="1" stroke="rgb(0,0,0)" stroke-linejoin="miter" stroke-linecap="square" stroke-miterlimit="3"/><g><path d=" M 32 6.423 L 33.691 6.423 L 33.691 8.114 L 36.228 8.114 L 36.228 9.805 L 39.61 9.805 L 42.146 12.341 L 39.61 14.878 L 53.138 14.878 L 53.138 17.415 L 50.602 17.415 L 50.602 19.951 L 48.065 19.951 L 48.065 22.488 L 44.683 22.488 L 39.61 22.488 L 39.61 58 L 36.228 58 L 32 53.772 L 32 8.114 L 33.691 8.114" fill="rgb(34,47,62)" vector-effect="non-scaling-stroke" stroke-width="1" stroke="rgb(0,0,0)" stroke-linejoin="miter" stroke-linecap="square" stroke-miterlimit="3"/><path d=" M 32 6.423 L 30.309 6.423 L 30.309 8.114 L 27.772 8.114 L 27.772 9.805 L 24.39 9.805 L 21.854 12.341 L 24.39 14.878 L 10.862 14.878 L 10.862 17.415 L 13.398 17.415 L 13.398 19.951 L 15.935 19.951 L 15.935 22.488 L 19.317 22.488 L 24.39 22.488 L 24.39 58 L 27.772 58 L 32 53.772 L 32 8.114 L 30.309 8.114" fill="rgb(34,47,62)" vector-effect="non-scaling-stroke" stroke-width="1" stroke="rgb(0,0,0)" stroke-linejoin="miter" stroke-linecap="square" stroke-miterlimit="3"/></g><path d=" M 32 18.683 L 29.463 21.22 L 29.463 44.894 L 32 47.431 L 34.537 44.894 L 34.537 21.22 L 32 18.683 Z " fill="rgb(238,82,83)" vector-effect="non-scaling-stroke" stroke-width="1" stroke="rgb(0,0,0)" stroke-linejoin="miter" stroke-linecap="square" stroke-miterlimit="3"/><g opacity="0.47"><path d=" M 24.39 33.901 Q 27.402 34.96 32 34.96 Q 36.598 34.96 39.61 33.901 L 39.61 39.187 L 24.39 39.187 L 24.39 33.901 Z " fill="rgb(12,12,13)"/></g><g><path d=" M 32 6.423 L 33.691 6.423 L 33.691 8.114 L 36.228 8.114 L 36.228 9.805 L 39.61 9.805 L 42.146 12.341 L 39.61 14.878 L 53.138 14.878 L 53.138 17.415 L 50.602 17.415 L 50.602 19.951 L 48.065 19.951 L 48.065 22.488 L 44.683 22.488 L 39.61 22.488 L 39.61 58 L 36.228 58 L 32 53.772 L 32 8.114 L 33.691 8.114" fill="none" vector-effect="non-scaling-stroke" stroke-width="1" stroke="rgb(0,0,0)" stroke-linejoin="miter" stroke-linecap="square" stroke-miterlimit="3"/><path d=" M 32 6.423 L 30.309 6.423 L 30.309 8.114 L 27.772 8.114 L 27.772 9.805 L 24.39 9.805 L 21.854 12.341 L 24.39 14.878 L 10.862 14.878 L 10.862 17.415 L 13.398 17.415 L 13.398 19.951 L 15.935 19.951 L 15.935 22.488 L 19.317 22.488 L 24.39 22.488 L 24.39 58 L 27.772 58 L 32 53.772 L 32 8.114 L 30.309 8.114" fill="none" vector-effect="non-scaling-stroke" stroke-width="1" stroke="rgb(0,0,0)" stroke-linejoin="miter" stroke-linecap="square" stroke-miterlimit="3"/></g><g opacity="0.48"><path d=" M 39.61 34.312 Q 39.68 34.345 41.301 33.427 Q 42.886 32.528 42.992 32.026 L 42.992 35.593 L 39.61 36.017 L 39.61 34.312 Z " fill="rgb(12,12,13)" vector-effect="non-scaling-stroke" stroke-width="1" stroke="rgb(0,0,0)" stroke-linejoin="miter" stroke-linecap="square" stroke-miterlimit="3"/></g><g opacity="0.57"><path d=" M 24.39 34.497 Q 24.32 34.53 22.699 33.612 Q 21.114 32.713 21.008 32.211 L 21.008 35.778 L 24.39 36.202 L 24.39 34.497 Z " fill="rgb(12,12,13)" vector-effect="non-scaling-stroke" stroke-width="1" stroke="rgb(0,0,0)" stroke-linejoin="miter" stroke-linecap="square" stroke-miterlimit="3"/></g><path d=" M 15.935 33.901 Q 27.059 36.491 32 36.438 Q 36.941 36.385 48.065 33.901 L 48.065 37.283 Q 39.663 39.767 32 39.82 Q 24.337 39.873 15.935 37.283 L 15.935 33.901 Z " fill="rgb(238,82,83)" vector-effect="non-scaling-stroke" stroke-width="1" stroke="rgb(0,0,0)" stroke-linejoin="miter" stroke-linecap="square" stroke-miterlimit="3"/><path d=" M 30.309 6 L 30.309 7.691 L 33.691 7.691 L 33.691 6 L 30.309 6 Z " fill="rgb(255,107,107)" vector-effect="non-scaling-stroke" stroke-width="1" stroke="rgb(0,0,0)" stroke-linejoin="miter" stroke-linecap="square" stroke-miterlimit="3"/><g><defs><filter id="y4ueThvC3H0TLuSn7YmFOFDJmvZC5PbN" x="-200%" y="-200%" width="400%" height="400%" filterUnits="objectBoundingBox" color-interpolation-filters="sRGB"><feGaussianBlur xmlns="http://www.w3.org/2000/svg" in="SourceGraphic" stdDeviation="8.157857219394154"/><feOffset xmlns="http://www.w3.org/2000/svg" dx="0" dy="0" result="pf_100_offsetBlur"/><feFlood xmlns="http://www.w3.org/2000/svg" flood-color="#FF9FF3" flood-opacity="1"/><feComposite xmlns="http://www.w3.org/2000/svg" in2="pf_100_offsetBlur" operator="in" result="pf_100_dropShadow"/><feBlend xmlns="http://www.w3.org/2000/svg" in="SourceGraphic" in2="pf_100_dropShadow" mode="normal"/></filter></defs><g filter="url(#y4ueThvC3H0TLuSn7YmFOFDJmvZC5PbN)"><path d=" M 26.927 17.837 L 26.927 18.683 L 27.772 18.683 L 27.772 17.837 L 26.927 17.837 Z " fill="rgb(255,159,243)"/></g><defs><filter id="1yX2tAX5HdC1qk1n5JJsRTJOl0jmUnsM" x="-200%" y="-200%" width="400%" height="400%" filterUnits="objectBoundingBox" color-interpolation-filters="sRGB"><feGaussianBlur xmlns="http://www.w3.org/2000/svg" in="SourceGraphic" stdDeviation="8.157857219394154"/><feOffset xmlns="http://www.w3.org/2000/svg" dx="0" dy="0" result="pf_100_offsetBlur"/><feFlood xmlns="http://www.w3.org/2000/svg" flood-color="#FF9FF3" flood-opacity="1"/><feComposite xmlns="http://www.w3.org/2000/svg" in2="pf_100_offsetBlur" operator="in" result="pf_100_dropShadow"/><feBlend xmlns="http://www.w3.org/2000/svg" in="SourceGraphic" in2="pf_100_dropShadow" mode="normal"/></filter></defs><g filter="url(#1yX2tAX5HdC1qk1n5JJsRTJOl0jmUnsM)"><path d=" M 26.927 20.374 L 26.927 21.22 L 27.772 21.22 L 27.772 20.374 L 26.927 20.374 Z " fill="rgb(255,159,243)"/></g><defs><filter id="mPYvqSRGZCUvcxp8xQu3hQOGEZ5VGYIm" x="-200%" y="-200%" width="400%" height="400%" filterUnits="objectBoundingBox" color-interpolation-filters="sRGB"><feGaussianBlur xmlns="http://www.w3.org/2000/svg" in="SourceGraphic" stdDeviation="8.157857219394154"/><feOffset xmlns="http://www.w3.org/2000/svg" dx="0" dy="0" result="pf_100_offsetBlur"/><feFlood xmlns="http://www.w3.org/2000/svg" flood-color="#FF9FF3" flood-opacity="1"/><feComposite xmlns="http://www.w3.org/2000/svg" in2="pf_100_offsetBlur" operator="in" result="pf_100_dropShadow"/><feBlend xmlns="http://www.w3.org/2000/svg" in="SourceGraphic" in2="pf_100_dropShadow" mode="normal"/></filter></defs><g filter="url(#mPYvqSRGZCUvcxp8xQu3hQOGEZ5VGYIm)"><path d=" M 26.927 22.911 L 26.927 23.756 L 27.772 23.756 L 27.772 22.911 L 26.927 22.911 Z " fill="rgb(255,159,243)"/></g><defs><filter id="jgpnQr88NULl9Zu881V2QAoLGQ3JhSYl" x="-200%" y="-200%" width="400%" height="400%" filterUnits="objectBoundingBox" color-interpolation-filters="sRGB"><feGaussianBlur xmlns="http://www.w3.org/2000/svg" in="SourceGraphic" stdDeviation="8.157857219394154"/><feOffset xmlns="http://www.w3.org/2000/svg" dx="0" dy="0" result="pf_100_offsetBlur"/><feFlood xmlns="http://www.w3.org/2000/svg" flood-color="#FF9FF3" flood-opacity="1"/><feComposite xmlns="http://www.w3.org/2000/svg" in2="pf_100_offsetBlur" operator="in" result="pf_100_dropShadow"/><feBlend xmlns="http://www.w3.org/2000/svg" in="SourceGraphic" in2="pf_100_dropShadow" mode="normal"/></filter></defs><g filter="url(#jgpnQr88NULl9Zu881V2QAoLGQ3JhSYl)"><path d=" M 26.927 25.447 L 26.927 26.293 L 27.772 26.293 L 27.772 25.447 L 26.927 25.447 Z " fill="rgb(255,159,243)"/></g><defs><filter id="UcG6gaZVj4FgImJ3YOVp5UHt1vXi6Xys" x="-200%" y="-200%" width="400%" height="400%" filterUnits="objectBoundingBox" color-interpolation-filters="sRGB"><feGaussianBlur xmlns="http://www.w3.org/2000/svg" in="SourceGraphic" stdDeviation="8.157857219394154"/><feOffset xmlns="http://www.w3.org/2000/svg" dx="0" dy="0" result="pf_100_offsetBlur"/><feFlood xmlns="http://www.w3.org/2000/svg" flood-color="#FF9FF3" flood-opacity="1"/><feComposite xmlns="http://www.w3.org/2000/svg" in2="pf_100_offsetBlur" operator="in" result="pf_100_dropShadow"/><feBlend xmlns="http://www.w3.org/2000/svg" in="SourceGraphic" in2="pf_100_dropShadow" mode="normal"/></filter></defs><g filter="url(#UcG6gaZVj4FgImJ3YOVp5UHt1vXi6Xys)"><path d=" M 26.927 27.984 L 26.927 28.829 L 27.772 28.829 L 27.772 27.984 L 26.927 27.984 Z " fill="rgb(255,159,243)"/></g><defs><filter id="IISUdFiadl9AB1OSf951VsDX8bYF8a4D" x="-200%" y="-200%" width="400%" height="400%" filterUnits="objectBoundingBox" color-interpolation-filters="sRGB"><feGaussianBlur xmlns="http://www.w3.org/2000/svg" in="SourceGraphic" stdDeviation="8.157857219394154"/><feOffset xmlns="http://www.w3.org/2000/svg" dx="0" dy="0" result="pf_100_offsetBlur"/><feFlood xmlns="http://www.w3.org/2000/svg" flood-color="#FF9FF3" flood-opacity="1"/><feComposite xmlns="http://www.w3.org/2000/svg" in2="pf_100_offsetBlur" operator="in" result="pf_100_dropShadow"/><feBlend xmlns="http://www.w3.org/2000/svg" in="SourceGraphic" in2="pf_100_dropShadow" mode="normal"/></filter></defs><g filter="url(#IISUdFiadl9AB1OSf951VsDX8bYF8a4D)"><path d=" M 26.927 30.52 L 26.927 31.366 L 27.772 31.366 L 27.772 30.52 L 26.927 30.52 Z " fill="rgb(255,159,243)"/></g><defs><filter id="0xFkQIZLJ0nv7nnGHmqXK1XMH5Xyzrsp" x="-200%" y="-200%" width="400%" height="400%" filterUnits="objectBoundingBox" color-interpolation-filters="sRGB"><feGaussianBlur xmlns="http://www.w3.org/2000/svg" in="SourceGraphic" stdDeviation="8.157857219394154"/><feOffset xmlns="http://www.w3.org/2000/svg" dx="0" dy="0" result="pf_100_offsetBlur"/><feFlood xmlns="http://www.w3.org/2000/svg" flood-color="#FF9FF3" flood-opacity="1"/><feComposite xmlns="http://www.w3.org/2000/svg" in2="pf_100_offsetBlur" operator="in" result="pf_100_dropShadow"/><feBlend xmlns="http://www.w3.org/2000/svg" in="SourceGraphic" in2="pf_100_dropShadow" mode="normal"/></filter></defs><g filter="url(#0xFkQIZLJ0nv7nnGHmqXK1XMH5Xyzrsp)"><path d=" M 36.228 17.837 L 36.228 18.683 L 37.073 18.683 L 37.073 17.837 L 36.228 17.837 Z " fill="rgb(255,159,243)"/></g><defs><filter id="8uadhJsErGO9y9VP0n3RnoK0TCpNKlGT" x="-200%" y="-200%" width="400%" height="400%" filterUnits="objectBoundingBox" color-interpolation-filters="sRGB"><feGaussianBlur xmlns="http://www.w3.org/2000/svg" in="SourceGraphic" stdDeviation="8.157857219394154"/><feOffset xmlns="http://www.w3.org/2000/svg" dx="0" dy="0" result="pf_100_offsetBlur"/><feFlood xmlns="http://www.w3.org/2000/svg" flood-color="#FF9FF3" flood-opacity="1"/><feComposite xmlns="http://www.w3.org/2000/svg" in2="pf_100_offsetBlur" operator="in" result="pf_100_dropShadow"/><feBlend xmlns="http://www.w3.org/2000/svg" in="SourceGraphic" in2="pf_100_dropShadow" mode="normal"/></filter></defs><g filter="url(#8uadhJsErGO9y9VP0n3RnoK0TCpNKlGT)"><path d=" M 36.228 20.374 L 36.228 21.22 L 37.073 21.22 L 37.073 20.374 L 36.228 20.374 Z " fill="rgb(255,159,243)"/></g><defs><filter id="e7MoTWlrKJ4lkrf37eB2QHju4RJL1T8I" x="-200%" y="-200%" width="400%" height="400%" filterUnits="objectBoundingBox" color-interpolation-filters="sRGB"><feGaussianBlur xmlns="http://www.w3.org/2000/svg" in="SourceGraphic" stdDeviation="8.157857219394154"/><feOffset xmlns="http://www.w3.org/2000/svg" dx="0" dy="0" result="pf_100_offsetBlur"/><feFlood xmlns="http://www.w3.org/2000/svg" flood-color="#FF9FF3" flood-opacity="1"/><feComposite xmlns="http://www.w3.org/2000/svg" in2="pf_100_offsetBlur" operator="in" result="pf_100_dropShadow"/><feBlend xmlns="http://www.w3.org/2000/svg" in="SourceGraphic" in2="pf_100_dropShadow" mode="normal"/></filter></defs><g filter="url(#e7MoTWlrKJ4lkrf37eB2QHju4RJL1T8I)"><path d=" M 36.228 22.911 L 36.228 23.756 L 37.073 23.756 L 37.073 22.911 L 36.228 22.911 Z " fill="rgb(255,159,243)"/></g><defs><filter id="SVl3xRajhwVvlr1YSbtjANQtMLBiAKHW" x="-200%" y="-200%" width="400%" height="400%" filterUnits="objectBoundingBox" color-interpolation-filters="sRGB"><feGaussianBlur xmlns="http://www.w3.org/2000/svg" in="SourceGraphic" stdDeviation="8.157857219394154"/><feOffset xmlns="http://www.w3.org/2000/svg" dx="0" dy="0" result="pf_100_offsetBlur"/><feFlood xmlns="http://www.w3.org/2000/svg" flood-color="#FF9FF3" flood-opacity="1"/><feComposite xmlns="http://www.w3.org/2000/svg" in2="pf_100_offsetBlur" operator="in" result="pf_100_dropShadow"/><feBlend xmlns="http://www.w3.org/2000/svg" in="SourceGraphic" in2="pf_100_dropShadow" mode="normal"/></filter></defs><g filter="url(#SVl3xRajhwVvlr1YSbtjANQtMLBiAKHW)"><path d=" M 36.228 25.447 L 36.228 26.293 L 37.073 26.293 L 37.073 25.447 L 36.228 25.447 Z " fill="rgb(255,159,243)"/></g><defs><filter id="kkyFs4aqxOqDTQZ4tgHjH1At9iuQ23TL" x="-200%" y="-200%" width="400%" height="400%" filterUnits="objectBoundingBox" color-interpolation-filters="sRGB"><feGaussianBlur xmlns="http://www.w3.org/2000/svg" in="SourceGraphic" stdDeviation="8.157857219394154"/><feOffset xmlns="http://www.w3.org/2000/svg" dx="0" dy="0" result="pf_100_offsetBlur"/><feFlood xmlns="http://www.w3.org/2000/svg" flood-color="#FF9FF3" flood-opacity="1"/><feComposite xmlns="http://www.w3.org/2000/svg" in2="pf_100_offsetBlur" operator="in" result="pf_100_dropShadow"/><feBlend xmlns="http://www.w3.org/2000/svg" in="SourceGraphic" in2="pf_100_dropShadow" mode="normal"/></filter></defs><g filter="url(#kkyFs4aqxOqDTQZ4tgHjH1At9iuQ23TL)"><path d=" M 36.228 27.984 L 36.228 28.829 L 37.073 28.829 L 37.073 27.984 L 36.228 27.984 Z " fill="rgb(255,159,243)"/></g><defs><filter id="GF7aahgYSzguNfvBEVFaWypmkM5mQNc4" x="-200%" y="-200%" width="400%" height="400%" filterUnits="objectBoundingBox" color-interpolation-filters="sRGB"><feGaussianBlur xmlns="http://www.w3.org/2000/svg" in="SourceGraphic" stdDeviation="8.157857219394154"/><feOffset xmlns="http://www.w3.org/2000/svg" dx="0" dy="0" result="pf_100_offsetBlur"/><feFlood xmlns="http://www.w3.org/2000/svg" flood-color="#FF9FF3" flood-opacity="1"/><feComposite xmlns="http://www.w3.org/2000/svg" in2="pf_100_offsetBlur" operator="in" result="pf_100_dropShadow"/><feBlend xmlns="http://www.w3.org/2000/svg" in="SourceGraphic" in2="pf_100_dropShadow" mode="normal"/></filter></defs><g filter="url(#GF7aahgYSzguNfvBEVFaWypmkM5mQNc4)"><path d=" M 36.228 30.52 L 36.228 31.366 L 37.073 31.366 L 37.073 30.52 L 36.228 30.52 Z " fill="rgb(255,159,243)"/></g></g></g></g></svg>