<?xml version="1.0" standalone="no"?><!-- Generator: Gravit.io --><svg xmlns="http://www.w3.org/2000/svg" xmlns:xlink="http://www.w3.org/1999/xlink" style="isolation:isolate" viewBox="0 0 64 64" width="64" height="64"><g><rect x="7.385" y="36.923" width="9.846" height="4.923" transform="matrix(1,0,0,1,0,0)" fill="rgb(47,54,64)"/><rect x="46.769" y="36.923" width="9.846" height="4.923" transform="matrix(1,0,0,1,0,0)" fill="rgb(47,54,64)"/><path d="M 16.13 14.769 L 47.87 14.769 C 48.621 14.769 49.231 15.379 49.231 16.13 L 49.231 50.332 C 49.231 51.083 48.621 51.692 47.87 51.692 L 16.13 51.692 C 15.379 51.692 14.769 51.083 14.769 50.332 L 14.769 16.13 C 14.769 15.379 15.379 14.769 16.13 14.769 Z" style="stroke:none;fill:#00A8FF;stroke-miterlimit:10;"/><path d="M 32 27.077 L 32 27.077 C 38.793 27.077 44.308 32.592 44.308 39.385 L 44.308 51.692 C 44.308 58.485 38.793 64 32 64 L 32 64 C 25.207 64 19.692 58.485 19.692 51.692 L 19.692 39.385 C 19.692 32.592 25.207 27.077 32 27.077 Z" style="stroke:none;fill:#00A8FF;stroke-miterlimit:10;"/><g><path d="M 12.308 7.385 L 29.538 7.385 L 29.538 27.077 L 9.846 27.077 L 9.846 9.846 C 9.846 8.488 10.949 7.385 12.308 7.385 Z" style="stroke:none;fill:#00A8FF;stroke-miterlimit:10;"/><path d="M 12.308 7.385 L 29.538 7.385 L 29.538 27.077 L 9.846 27.077 L 9.846 9.846 C 9.846 8.488 10.949 7.385 12.308 7.385 Z" style="fill:none;stroke:#00A8FF;stroke-width:1;stroke-linecap:square;stroke-miterlimit:2;"/><path d="M 34.462 7.385 L 51.692 7.385 C 53.051 7.385 54.154 8.488 54.154 9.846 L 54.154 27.077 L 34.462 27.077 L 34.462 7.385 Z" style="stroke:none;fill:#00A8FF;stroke-linecap:square;stroke-miterlimit:2;"/><path d="M 34.462 7.385 L 51.692 7.385 C 53.051 7.385 54.154 8.488 54.154 9.846 L 54.154 27.077 L 34.462 27.077 L 34.462 7.385 Z" style="fill:none;stroke:#00A8FF;stroke-width:1;stroke-linecap:square;stroke-miterlimit:2;"/><g><defs><filter id="i8iF4iuBipqHfAFjosrosQk8br2rRjf5" x="-200%" y="-200%" width="400%" height="400%" filterUnits="objectBoundingBox" color-interpolation-filters="sRGB"><feGaussianBlur xmlns="http://www.w3.org/2000/svg" in="SourceGraphic" stdDeviation="2.146804531419514"/><feOffset xmlns="http://www.w3.org/2000/svg" dx="0" dy="0" result="pf_100_offsetBlur"/><feFlood xmlns="http://www.w3.org/2000/svg" flood-color="#000000" flood-opacity="0.2"/><feComposite xmlns="http://www.w3.org/2000/svg" in2="pf_100_offsetBlur" operator="in" result="pf_100_dropShadow"/><feBlend xmlns="http://www.w3.org/2000/svg" in="SourceGraphic" in2="pf_100_dropShadow" mode="normal"/></filter></defs><g filter="url(#i8iF4iuBipqHfAFjosrosQk8br2rRjf5)"><path d="M 13.5 0 L 26.53 0 L 26.53 6.4 L 12.308 6.4 L 12.308 1.193 C 12.308 0.534 12.842 0 13.5 0 Z" style="stroke:none;fill:#2BD5FF;stroke-linecap:square;stroke-miterlimit:2;"/><path d="M 13.5 0 L 26.53 0 L 26.53 6.4 L 12.308 6.4 L 12.308 1.193 C 12.308 0.534 12.842 0 13.5 0 Z" style="fill:none;stroke:#00A8FF;stroke-width:1;stroke-linecap:square;stroke-miterlimit:2;"/></g><defs><filter id="GyZEArWvtDoezGLpSOTKMPHMLY8e1X1S" x="-200%" y="-200%" width="400%" height="400%" filterUnits="objectBoundingBox" color-interpolation-filters="sRGB"><feGaussianBlur xmlns="http://www.w3.org/2000/svg" in="SourceGraphic" stdDeviation="2.146804531419514"/><feOffset xmlns="http://www.w3.org/2000/svg" dx="0" dy="0" result="pf_100_offsetBlur"/><feFlood xmlns="http://www.w3.org/2000/svg" flood-color="#000000" flood-opacity="0.2"/><feComposite xmlns="http://www.w3.org/2000/svg" in2="pf_100_offsetBlur" operator="in" result="pf_100_dropShadow"/><feBlend xmlns="http://www.w3.org/2000/svg" in="SourceGraphic" in2="pf_100_dropShadow" mode="normal"/></filter></defs><g filter="url(#GyZEArWvtDoezGLpSOTKMPHMLY8e1X1S)"><path d="M 36.923 0 L 49.953 0 C 50.611 0 51.145 0.534 51.145 1.193 L 51.145 6.4 L 36.923 6.4 L 36.923 0 Z" style="stroke:none;fill:#2BD5FF;stroke-linecap:square;stroke-miterlimit:2;"/><path d="M 36.923 0 L 49.953 0 C 50.611 0 51.145 0.534 51.145 1.193 L 51.145 6.4 L 36.923 6.4 L 36.923 0 Z" style="fill:none;stroke:#00A8FF;stroke-width:1;stroke-linecap:square;stroke-miterlimit:2;"/></g></g></g><g><path d="M 32 28 L 53.231 28 L 53.231 48.238 C 53.231 49.762 51.993 51 50.469 51 L 32 51 L 32 28 Z" style="stroke:none;fill:#2F3640;stroke-linecap:square;stroke-miterlimit:2;"/><path d="M 10.769 28 L 32 28 L 32 51 L 13.531 51 C 12.007 51 10.769 49.762 10.769 48.238 L 10.769 28 Z" style="stroke:none;fill:#2F3640;stroke-linecap:square;stroke-miterlimit:2;"/></g><g><path d="M 32 29.538 L 51.692 29.538 L 51.692 46.769 C 51.692 48.128 50.589 49.231 49.231 49.231 L 32 49.231 L 32 29.538 Z" style="stroke:none;fill:#DCDDE1;stroke-linecap:square;stroke-miterlimit:2;"/><path d="M 12.308 29.538 L 32 29.538 L 32 49.231 L 14.769 49.231 C 13.411 49.231 12.308 48.128 12.308 46.769 L 12.308 29.538 Z" style="stroke:none;fill:#DCDDE1;stroke-linecap:square;stroke-miterlimit:2;"/></g><g><path d="M 0 34.462 L 9.846 34.462 L 9.846 54.154 L 1.741 54.154 C 0.78 54.154 0 53.374 0 52.413 L 0 34.462 Z" style="stroke:none;fill:#DCDDE1;stroke-linecap:square;stroke-miterlimit:2;"/><path d="M 0 49.231 L 9.846 49.231 L 9.846 54.154 L 2.462 54.154 C 1.103 54.154 0 53.051 0 51.692 L 0 49.231 Z" style="stroke:none;fill:#E84118;stroke-linecap:square;stroke-miterlimit:2;"/></g><path d="M 19.692 36.923 L 24.615 36.923 C 25.974 36.923 27.077 38.026 27.077 39.385 L 27.077 39.385 C 27.077 40.743 25.974 41.846 24.615 41.846 L 19.692 41.846 C 18.334 41.846 17.231 40.743 17.231 39.385 L 17.231 39.385 C 17.231 38.026 18.334 36.923 19.692 36.923 Z" style="stroke:none;fill:#2F3640;stroke-linecap:square;stroke-miterlimit:2;"/><path d="M 39.385 36.923 L 44.308 36.923 C 45.666 36.923 46.769 38.026 46.769 39.385 L 46.769 39.385 C 46.769 40.743 45.666 41.846 44.308 41.846 L 39.385 41.846 C 38.026 41.846 36.923 40.743 36.923 39.385 L 36.923 39.385 C 36.923 38.026 38.026 36.923 39.385 36.923 Z" style="stroke:none;fill:#2F3640;stroke-linecap:square;stroke-miterlimit:2;"/><g><path d="M 54.154 34.462 L 64 34.462 L 64 51.692 C 64 53.051 62.897 54.154 61.538 54.154 L 54.154 54.154 L 54.154 34.462 Z" style="stroke:none;fill:#DCDDE1;stroke-linecap:square;stroke-miterlimit:2;"/><path d="M 54.154 49.231 L 64 49.231 L 64 51.692 C 64 53.051 62.897 54.154 61.538 54.154 L 54.154 54.154 L 54.154 49.231 Z" style="stroke:none;fill:#E84118;stroke-linecap:square;stroke-miterlimit:2;"/></g></g></svg>