<?xml version="1.0" encoding="UTF-8" standalone="no"?><!-- Generator: Gravit.io --><svg xmlns="http://www.w3.org/2000/svg" xmlns:xlink="http://www.w3.org/1999/xlink" style="isolation:isolate" viewBox="0 0 64 64" width="64pt" height="64pt"><defs><clipPath id="_clipPath_QVr0NRXX90paZX7iRIB1lgdaK1XYGbI2"><rect width="64" height="64"/></clipPath></defs><g clip-path="url(#_clipPath_QVr0NRXX90paZX7iRIB1lgdaK1XYGbI2)"><mask id="_mask_5Tvu06AlqCAfdupjySf81vyAynaztZoH" x="-200%" y="-200%" width="400%" height="400%"><rect x="-200%" y="-200%" width="400%" height="400%" style="fill:white;"/><path d=" M 32 54 L 27.79 42.163 L 16.444 47.556 L 21.837 36.21 L 10 32 L 21.837 27.79 L 16.444 16.444 L 27.79 21.837 L 32 10 L 36.21 21.837 L 47.556 16.444 L 42.163 27.79 L 54 32 L 42.163 36.21 L 47.556 47.556 L 36.21 42.163 L 32 54 Z " fill="black" stroke="none"/></mask><path d=" M 32 54 L 27.79 42.163 L 16.444 47.556 L 21.837 36.21 L 10 32 L 21.837 27.79 L 16.444 16.444 L 27.79 21.837 L 32 10 L 36.21 21.837 L 47.556 16.444 L 42.163 27.79 L 54 32 L 42.163 36.21 L 47.556 47.556 L 36.21 42.163 L 32 54 Z " fill="rgb(238,82,83)" mask="url(#_mask_5Tvu06AlqCAfdupjySf81vyAynaztZoH)" vector-effect="non-scaling-stroke" stroke-width="6" stroke="rgb(255,159,67)" stroke-linejoin="miter" stroke-linecap="square" stroke-miterlimit="3"/><path d=" M 32 54 L 27.79 42.163 L 16.444 47.556 L 21.837 36.21 L 10 32 L 21.837 27.79 L 16.444 16.444 L 27.79 21.837 L 32 10 L 36.21 21.837 L 47.556 16.444 L 42.163 27.79 L 54 32 L 42.163 36.21 L 47.556 47.556 L 36.21 42.163 L 32 54 Z " fill="rgb(238,82,83)"/></g></svg>