<?xml version="1.0" encoding="UTF-8" standalone="no"?><!-- Generator: Gravit.io --><svg xmlns="http://www.w3.org/2000/svg" xmlns:xlink="http://www.w3.org/1999/xlink" style="isolation:isolate" viewBox="0 0 64 64" width="64pt" height="64pt"><defs><clipPath id="_clipPath_9ZdVVSK644auq3Wn8B1hQ5AnJjM6bk57"><rect width="64" height="64"/></clipPath></defs><g clip-path="url(#_clipPath_9ZdVVSK644auq3Wn8B1hQ5AnJjM6bk57)"><g><path d=" M 15.935 30.731 Q 27.059 33.32 32 33.268 Q 36.941 33.215 48.065 30.731 L 48.065 34.113 Q 39.663 36.597 32 36.65 Q 24.337 36.702 15.935 34.113 L 15.935 30.731 Z " fill="rgb(131,149,167)" vector-effect="non-scaling-stroke" stroke-width="1" stroke="rgb(0,0,0)" stroke-linejoin="miter" stroke-linecap="square" stroke-miterlimit="3"/><path d=" M 15.935 21.536 Q 27.059 24.125 32 24.073 Q 36.941 24.02 48.065 21.536 L 48.065 24.918 Q 39.663 27.402 32 27.455 Q 24.337 27.508 15.935 24.918 L 15.935 21.536 Z " fill="rgb(131,149,167)" vector-effect="non-scaling-stroke" stroke-width="1" stroke="rgb(0,0,0)" stroke-linejoin="miter" stroke-linecap="square" stroke-miterlimit="3"/><path d=" M 39.61 41.512 L 42.992 38.553 L 45 25.75 L 42.992 11.496 L 39.61 8.114 L 39.61 41.512 Z " fill="rgb(95,39,205)" vector-effect="non-scaling-stroke" stroke-width="1" stroke="rgb(0,0,0)" stroke-linejoin="miter" stroke-linecap="square" stroke-miterlimit="3"/><path d=" M 24.39 41.512 L 21.008 38.553 L 19 25.25 L 21.008 11.496 L 24.39 8.114 L 24.39 41.512 Z " fill="rgb(95,39,205)" vector-effect="non-scaling-stroke" stroke-width="1" stroke="rgb(0,0,0)" stroke-linejoin="miter" stroke-linecap="square" stroke-miterlimit="3"/><g><path d=" M 32 57.577 L 30.309 57.577 L 30.309 55.886 L 27.772 55.886 L 27.772 54.195 L 24.39 54.195 L 21.854 51.659 L 18 54.195 L 12 53 L 10.862 46.585 L 13.398 46.585 L 13.398 44.049 L 15.935 44.049 L 15.935 41.512 L 19.317 41.512 L 24.39 41.512 L 23 24.25 L 24.39 6 L 27.772 6 L 30.309 10.228 L 32 55.886 L 30.309 55.886" fill="rgb(34,47,62)" vector-effect="non-scaling-stroke" stroke-width="1" stroke="rgb(0,0,0)" stroke-linejoin="miter" stroke-linecap="square" stroke-miterlimit="3"/><path d=" M 32 57.577 L 33.691 57.577 L 33.691 55.886 L 36.228 55.886 L 36.228 54.195 L 39.61 54.195 L 42.146 51.659 L 45 54 L 52 53 L 53.138 46.585 L 50.602 46.585 L 50.602 44.049 L 48.065 44.049 L 48.065 41.512 L 44.683 41.512 L 39.61 41.512 L 41 24.562 L 39.61 6 L 36.228 6 L 33.691 10.228 L 32 55.886 L 33.691 55.886" fill="rgb(34,47,62)" vector-effect="non-scaling-stroke" stroke-width="1" stroke="rgb(0,0,0)" stroke-linejoin="miter" stroke-linecap="square" stroke-miterlimit="3"/></g><g><path d=" M 32 57.577 L 30.309 57.577 L 30.309 55.886 L 27.772 55.886 L 27.772 54.195 L 24.39 54.195 L 21.854 51.659 L 18 54.195 L 12 53 L 10.862 46.585 L 13.398 46.585 L 13.398 44.049 L 15.935 44.049 L 15.935 41.512 L 19.317 41.512 L 21 39 L 21 24 L 24.39 6 L 27.772 6 L 30.309 10.228 L 32 55.886 L 30.309 55.886" fill="rgb(255,255,255)" vector-effect="non-scaling-stroke" stroke-width="1" stroke="rgb(0,0,0)" stroke-linejoin="miter" stroke-linecap="square" stroke-miterlimit="3"/><path d=" M 32 57.577 L 33.691 57.577 L 33.691 55.886 L 36.228 55.886 L 36.228 54.195 L 39.61 54.195 L 42.146 51.659 L 45 54.195 L 52 53 L 53.138 46.585 L 50.602 46.585 L 50.602 44.049 L 48.065 44.049 L 48.065 41.512 L 44.683 41.512 L 43 39 L 43 24.437 L 39.61 6 L 36.228 6 L 33.691 10.228 L 32 55.886 L 33.691 55.886" fill="rgb(255,255,255)" vector-effect="non-scaling-stroke" stroke-width="1" stroke="rgb(0,0,0)" stroke-linejoin="miter" stroke-linecap="square" stroke-miterlimit="3"/></g><g><path d=" M 32 45.317 L 34.537 42.78 L 34.537 19.106 L 32 16.569 L 29.463 19.106 L 29.463 42.78 L 32 45.317 Z " fill="rgb(72,219,251)" vector-effect="non-scaling-stroke" stroke-width="1" stroke="rgb(0,0,0)" stroke-linejoin="miter" stroke-linecap="square" stroke-miterlimit="3"/><g opacity="0.47"><path d=" M 43 24 Q 36.598 22.227 32 22.227 Q 27.402 22.227 21 24 L 21 19 L 43 19.106 L 43 24 Z " fill="rgb(12,12,13)"/></g></g><g><g opacity="0.47"><path d=" M 42.992 35.184 Q 36.598 32.436 32 32.436 Q 27.402 32.436 21.008 35.184 L 21.008 28.208 L 42.992 28.208 L 42.992 35.184 Z " fill="rgb(12,12,13)"/></g></g><path d=" M 48.065 23.651 Q 36.941 21.062 32 21.115 Q 27.059 21.168 15.935 23.651 L 15.935 20.269 Q 24.337 17.786 32 17.733 Q 39.663 17.68 48.065 20.269 L 48.065 23.651 Z " fill="rgb(72,219,251)" vector-effect="non-scaling-stroke" stroke-width="1" stroke="rgb(0,0,0)" stroke-linejoin="miter" stroke-linecap="square" stroke-miterlimit="3"/><path d=" M 48.065 32.846 Q 36.941 30.257 32 30.31 Q 27.059 30.363 15.935 32.846 L 15.935 29.464 Q 24.337 26.98 32 26.928 Q 39.663 26.875 48.065 29.464 L 48.065 32.846 Z " fill="rgb(72,219,251)" vector-effect="non-scaling-stroke" stroke-width="1" stroke="rgb(0,0,0)" stroke-linejoin="miter" stroke-linecap="square" stroke-miterlimit="3"/><path d=" M 33.691 58 L 33.691 56.309 L 30.309 56.309 L 30.309 58 L 33.691 58 Z " fill="rgb(255,107,107)" vector-effect="non-scaling-stroke" stroke-width="1" stroke="rgb(0,0,0)" stroke-linejoin="miter" stroke-linecap="square" stroke-miterlimit="3"/><path d=" M 17.509 55.665 L 17.812 54.001 L 12.302 53 L 12 54.664 L 17.509 55.665 Z " fill="rgb(255,107,107)" vector-effect="non-scaling-stroke" stroke-width="1" stroke="rgb(0,0,0)" stroke-linejoin="miter" stroke-linecap="square" stroke-miterlimit="3"/><path d=" M 51.799 55.403 L 51.526 53.734 L 46 54.64 L 46.274 56.309 L 51.799 55.403 Z " fill="rgb(255,107,107)" vector-effect="non-scaling-stroke" stroke-width="1" stroke="rgb(0,0,0)" stroke-linejoin="miter" stroke-linecap="square" stroke-miterlimit="3"/><g><defs><filter id="4ALGlG4ZRzSqDYW8bDCJgkst8J6GHAJb" x="-200%" y="-200%" width="400%" height="400%" filterUnits="objectBoundingBox" color-interpolation-filters="sRGB"><feGaussianBlur xmlns="http://www.w3.org/2000/svg" in="SourceGraphic" stdDeviation="8.157857219394154"/><feOffset xmlns="http://www.w3.org/2000/svg" dx="0" dy="0" result="pf_100_offsetBlur"/><feFlood xmlns="http://www.w3.org/2000/svg" flood-color="#FF9FF3" flood-opacity="1"/><feComposite xmlns="http://www.w3.org/2000/svg" in2="pf_100_offsetBlur" operator="in" result="pf_100_dropShadow"/><feBlend xmlns="http://www.w3.org/2000/svg" in="SourceGraphic" in2="pf_100_dropShadow" mode="normal"/></filter></defs><g filter="url(#4ALGlG4ZRzSqDYW8bDCJgkst8J6GHAJb)"><path d=" M 38.037 50 L 38.037 49.154 L 37.03 49.154 L 37.03 50 L 38.037 50 Z " fill="rgb(84,160,255)"/></g><defs><filter id="isPRBOSVnoCue2sT6k4KWewNimE7pMdP" x="-200%" y="-200%" width="400%" height="400%" filterUnits="objectBoundingBox" color-interpolation-filters="sRGB"><feGaussianBlur xmlns="http://www.w3.org/2000/svg" in="SourceGraphic" stdDeviation="8.157857219394154"/><feOffset xmlns="http://www.w3.org/2000/svg" dx="0" dy="0" result="pf_100_offsetBlur"/><feFlood xmlns="http://www.w3.org/2000/svg" flood-color="#FF9FF3" flood-opacity="1"/><feComposite xmlns="http://www.w3.org/2000/svg" in2="pf_100_offsetBlur" operator="in" result="pf_100_dropShadow"/><feBlend xmlns="http://www.w3.org/2000/svg" in="SourceGraphic" in2="pf_100_dropShadow" mode="normal"/></filter></defs><g filter="url(#isPRBOSVnoCue2sT6k4KWewNimE7pMdP)"><path d=" M 40 50 L 40 49.154 L 38.994 49.154 L 38.994 50 L 40 50 Z " fill="rgb(84,160,255)"/></g><defs><filter id="g3wVDLLINfUSeGkxe1lpQMwaCCKNTL7c" x="-200%" y="-200%" width="400%" height="400%" filterUnits="objectBoundingBox" color-interpolation-filters="sRGB"><feGaussianBlur xmlns="http://www.w3.org/2000/svg" in="SourceGraphic" stdDeviation="8.157857219394154"/><feOffset xmlns="http://www.w3.org/2000/svg" dx="0" dy="0" result="pf_100_offsetBlur"/><feFlood xmlns="http://www.w3.org/2000/svg" flood-color="#FF9FF3" flood-opacity="1"/><feComposite xmlns="http://www.w3.org/2000/svg" in2="pf_100_offsetBlur" operator="in" result="pf_100_dropShadow"/><feBlend xmlns="http://www.w3.org/2000/svg" in="SourceGraphic" in2="pf_100_dropShadow" mode="normal"/></filter></defs><g filter="url(#g3wVDLLINfUSeGkxe1lpQMwaCCKNTL7c)"><path d=" M 25.006 50 L 25.006 49.154 L 24 49.154 L 24 50 L 25.006 50 Z " fill="rgb(84,160,255)"/></g><defs><filter id="bxG8SrY0MuT9Ziic3nqKb0RV2KMfPhs7" x="-200%" y="-200%" width="400%" height="400%" filterUnits="objectBoundingBox" color-interpolation-filters="sRGB"><feGaussianBlur xmlns="http://www.w3.org/2000/svg" in="SourceGraphic" stdDeviation="8.157857219394154"/><feOffset xmlns="http://www.w3.org/2000/svg" dx="0" dy="0" result="pf_100_offsetBlur"/><feFlood xmlns="http://www.w3.org/2000/svg" flood-color="#FF9FF3" flood-opacity="1"/><feComposite xmlns="http://www.w3.org/2000/svg" in2="pf_100_offsetBlur" operator="in" result="pf_100_dropShadow"/><feBlend xmlns="http://www.w3.org/2000/svg" in="SourceGraphic" in2="pf_100_dropShadow" mode="normal"/></filter></defs><g filter="url(#bxG8SrY0MuT9Ziic3nqKb0RV2KMfPhs7)"><path d=" M 38.037 47.463 L 38.037 46.618 L 37.03 46.618 L 37.03 47.463 L 38.037 47.463 Z " fill="rgb(84,160,255)"/></g><defs><filter id="l59krqymfJGeMrEUFAWtyywsmcvZB2xm" x="-200%" y="-200%" width="400%" height="400%" filterUnits="objectBoundingBox" color-interpolation-filters="sRGB"><feGaussianBlur xmlns="http://www.w3.org/2000/svg" in="SourceGraphic" stdDeviation="8.157857219394154"/><feOffset xmlns="http://www.w3.org/2000/svg" dx="0" dy="0" result="pf_100_offsetBlur"/><feFlood xmlns="http://www.w3.org/2000/svg" flood-color="#FF9FF3" flood-opacity="1"/><feComposite xmlns="http://www.w3.org/2000/svg" in2="pf_100_offsetBlur" operator="in" result="pf_100_dropShadow"/><feBlend xmlns="http://www.w3.org/2000/svg" in="SourceGraphic" in2="pf_100_dropShadow" mode="normal"/></filter></defs><g filter="url(#l59krqymfJGeMrEUFAWtyywsmcvZB2xm)"><path d=" M 40 47.463 L 40 46.618 L 38.994 46.618 L 38.994 47.463 L 40 47.463 Z " fill="rgb(84,160,255)"/></g><defs><filter id="t9GkEIni3L5zEjObcNtOjBgrh48rEDEO" x="-200%" y="-200%" width="400%" height="400%" filterUnits="objectBoundingBox" color-interpolation-filters="sRGB"><feGaussianBlur xmlns="http://www.w3.org/2000/svg" in="SourceGraphic" stdDeviation="8.157857219394154"/><feOffset xmlns="http://www.w3.org/2000/svg" dx="0" dy="0" result="pf_100_offsetBlur"/><feFlood xmlns="http://www.w3.org/2000/svg" flood-color="#FF9FF3" flood-opacity="1"/><feComposite xmlns="http://www.w3.org/2000/svg" in2="pf_100_offsetBlur" operator="in" result="pf_100_dropShadow"/><feBlend xmlns="http://www.w3.org/2000/svg" in="SourceGraphic" in2="pf_100_dropShadow" mode="normal"/></filter></defs><g filter="url(#t9GkEIni3L5zEjObcNtOjBgrh48rEDEO)"><path d=" M 25.006 47.463 L 25.006 46.618 L 24 46.618 L 24 47.463 L 25.006 47.463 Z " fill="rgb(84,160,255)"/></g><defs><filter id="Ghe3sr5nXAAPPLvzhyLLL10c36DapSsv" x="-200%" y="-200%" width="400%" height="400%" filterUnits="objectBoundingBox" color-interpolation-filters="sRGB"><feGaussianBlur xmlns="http://www.w3.org/2000/svg" in="SourceGraphic" stdDeviation="8.157857219394154"/><feOffset xmlns="http://www.w3.org/2000/svg" dx="0" dy="0" result="pf_100_offsetBlur"/><feFlood xmlns="http://www.w3.org/2000/svg" flood-color="#FF9FF3" flood-opacity="1"/><feComposite xmlns="http://www.w3.org/2000/svg" in2="pf_100_offsetBlur" operator="in" result="pf_100_dropShadow"/><feBlend xmlns="http://www.w3.org/2000/svg" in="SourceGraphic" in2="pf_100_dropShadow" mode="normal"/></filter></defs><g filter="url(#Ghe3sr5nXAAPPLvzhyLLL10c36DapSsv)"><path d=" M 38.037 44.927 L 38.037 44.081 L 37.03 44.081 L 37.03 44.927 L 38.037 44.927 Z " fill="rgb(84,160,255)"/></g><defs><filter id="5XcIaJ4wzBn5wq9zlqwcPrN7NgL2Ldhg" x="-200%" y="-200%" width="400%" height="400%" filterUnits="objectBoundingBox" color-interpolation-filters="sRGB"><feGaussianBlur xmlns="http://www.w3.org/2000/svg" in="SourceGraphic" stdDeviation="8.157857219394154"/><feOffset xmlns="http://www.w3.org/2000/svg" dx="0" dy="0" result="pf_100_offsetBlur"/><feFlood xmlns="http://www.w3.org/2000/svg" flood-color="#FF9FF3" flood-opacity="1"/><feComposite xmlns="http://www.w3.org/2000/svg" in2="pf_100_offsetBlur" operator="in" result="pf_100_dropShadow"/><feBlend xmlns="http://www.w3.org/2000/svg" in="SourceGraphic" in2="pf_100_dropShadow" mode="normal"/></filter></defs><g filter="url(#5XcIaJ4wzBn5wq9zlqwcPrN7NgL2Ldhg)"><path d=" M 40 44.927 L 40 44.081 L 38.994 44.081 L 38.994 44.927 L 40 44.927 Z " fill="rgb(84,160,255)"/></g><defs><filter id="wl8jdHfBzS224N6dbXOB5m2iB3NtTRne" x="-200%" y="-200%" width="400%" height="400%" filterUnits="objectBoundingBox" color-interpolation-filters="sRGB"><feGaussianBlur xmlns="http://www.w3.org/2000/svg" in="SourceGraphic" stdDeviation="8.157857219394154"/><feOffset xmlns="http://www.w3.org/2000/svg" dx="0" dy="0" result="pf_100_offsetBlur"/><feFlood xmlns="http://www.w3.org/2000/svg" flood-color="#FF9FF3" flood-opacity="1"/><feComposite xmlns="http://www.w3.org/2000/svg" in2="pf_100_offsetBlur" operator="in" result="pf_100_dropShadow"/><feBlend xmlns="http://www.w3.org/2000/svg" in="SourceGraphic" in2="pf_100_dropShadow" mode="normal"/></filter></defs><g filter="url(#wl8jdHfBzS224N6dbXOB5m2iB3NtTRne)"><path d=" M 25.006 44.927 L 25.006 44.081 L 24 44.081 L 24 44.927 L 25.006 44.927 Z " fill="rgb(84,160,255)"/></g><defs><filter id="uNLyqTPH0GeMUHb4mTbVCHLV2oKIfUvg" x="-200%" y="-200%" width="400%" height="400%" filterUnits="objectBoundingBox" color-interpolation-filters="sRGB"><feGaussianBlur xmlns="http://www.w3.org/2000/svg" in="SourceGraphic" stdDeviation="8.157857219394154"/><feOffset xmlns="http://www.w3.org/2000/svg" dx="0" dy="0" result="pf_100_offsetBlur"/><feFlood xmlns="http://www.w3.org/2000/svg" flood-color="#FF9FF3" flood-opacity="1"/><feComposite xmlns="http://www.w3.org/2000/svg" in2="pf_100_offsetBlur" operator="in" result="pf_100_dropShadow"/><feBlend xmlns="http://www.w3.org/2000/svg" in="SourceGraphic" in2="pf_100_dropShadow" mode="normal"/></filter></defs><g filter="url(#uNLyqTPH0GeMUHb4mTbVCHLV2oKIfUvg)"><path d=" M 38.037 42.39 L 38.037 41.545 L 37.03 41.545 L 37.03 42.39 L 38.037 42.39 Z " fill="rgb(84,160,255)"/></g><defs><filter id="zQwnis4KuS70H5AVtsdZRYlpr7Xb30SS" x="-200%" y="-200%" width="400%" height="400%" filterUnits="objectBoundingBox" color-interpolation-filters="sRGB"><feGaussianBlur xmlns="http://www.w3.org/2000/svg" in="SourceGraphic" stdDeviation="8.157857219394154"/><feOffset xmlns="http://www.w3.org/2000/svg" dx="0" dy="0" result="pf_100_offsetBlur"/><feFlood xmlns="http://www.w3.org/2000/svg" flood-color="#FF9FF3" flood-opacity="1"/><feComposite xmlns="http://www.w3.org/2000/svg" in2="pf_100_offsetBlur" operator="in" result="pf_100_dropShadow"/><feBlend xmlns="http://www.w3.org/2000/svg" in="SourceGraphic" in2="pf_100_dropShadow" mode="normal"/></filter></defs><g filter="url(#zQwnis4KuS70H5AVtsdZRYlpr7Xb30SS)"><path d=" M 38.037 39.854 L 38.037 39.008 L 37.03 39.008 L 37.03 39.854 L 38.037 39.854 Z " fill="rgb(84,160,255)"/></g><defs><filter id="RvGk4BcWcrqGTQNTNnsMIYDM5xoK7hNz" x="-200%" y="-200%" width="400%" height="400%" filterUnits="objectBoundingBox" color-interpolation-filters="sRGB"><feGaussianBlur xmlns="http://www.w3.org/2000/svg" in="SourceGraphic" stdDeviation="8.157857219394154"/><feOffset xmlns="http://www.w3.org/2000/svg" dx="0" dy="0" result="pf_100_offsetBlur"/><feFlood xmlns="http://www.w3.org/2000/svg" flood-color="#FF9FF3" flood-opacity="1"/><feComposite xmlns="http://www.w3.org/2000/svg" in2="pf_100_offsetBlur" operator="in" result="pf_100_dropShadow"/><feBlend xmlns="http://www.w3.org/2000/svg" in="SourceGraphic" in2="pf_100_dropShadow" mode="normal"/></filter></defs><g filter="url(#RvGk4BcWcrqGTQNTNnsMIYDM5xoK7hNz)"><path d=" M 38.037 37.317 L 38.037 36.472 L 37.03 36.472 L 37.03 37.317 L 38.037 37.317 Z " fill="rgb(84,160,255)"/></g><defs><filter id="wO4oSKDhrhPr7GRiT1Gpkd4EWeAzqUdl" x="-200%" y="-200%" width="400%" height="400%" filterUnits="objectBoundingBox" color-interpolation-filters="sRGB"><feGaussianBlur xmlns="http://www.w3.org/2000/svg" in="SourceGraphic" stdDeviation="8.157857219394154"/><feOffset xmlns="http://www.w3.org/2000/svg" dx="0" dy="0" result="pf_100_offsetBlur"/><feFlood xmlns="http://www.w3.org/2000/svg" flood-color="#FF9FF3" flood-opacity="1"/><feComposite xmlns="http://www.w3.org/2000/svg" in2="pf_100_offsetBlur" operator="in" result="pf_100_dropShadow"/><feBlend xmlns="http://www.w3.org/2000/svg" in="SourceGraphic" in2="pf_100_dropShadow" mode="normal"/></filter></defs><g filter="url(#wO4oSKDhrhPr7GRiT1Gpkd4EWeAzqUdl)"><path d=" M 26.97 50 L 26.97 49.154 L 25.963 49.154 L 25.963 50 L 26.97 50 Z " fill="rgb(84,160,255)"/></g><defs><filter id="MMcw1Mvhzvir7EOv5UHtR5fnyyg1suOc" x="-200%" y="-200%" width="400%" height="400%" filterUnits="objectBoundingBox" color-interpolation-filters="sRGB"><feGaussianBlur xmlns="http://www.w3.org/2000/svg" in="SourceGraphic" stdDeviation="8.157857219394154"/><feOffset xmlns="http://www.w3.org/2000/svg" dx="0" dy="0" result="pf_100_offsetBlur"/><feFlood xmlns="http://www.w3.org/2000/svg" flood-color="#FF9FF3" flood-opacity="1"/><feComposite xmlns="http://www.w3.org/2000/svg" in2="pf_100_offsetBlur" operator="in" result="pf_100_dropShadow"/><feBlend xmlns="http://www.w3.org/2000/svg" in="SourceGraphic" in2="pf_100_dropShadow" mode="normal"/></filter></defs><g filter="url(#MMcw1Mvhzvir7EOv5UHtR5fnyyg1suOc)"><path d=" M 26.97 47.463 L 26.97 46.618 L 25.963 46.618 L 25.963 47.463 L 26.97 47.463 Z " fill="rgb(84,160,255)"/></g><defs><filter id="sDgT5ddSKMDUzPpcWG4NAqwYmtUixUez" x="-200%" y="-200%" width="400%" height="400%" filterUnits="objectBoundingBox" color-interpolation-filters="sRGB"><feGaussianBlur xmlns="http://www.w3.org/2000/svg" in="SourceGraphic" stdDeviation="8.157857219394154"/><feOffset xmlns="http://www.w3.org/2000/svg" dx="0" dy="0" result="pf_100_offsetBlur"/><feFlood xmlns="http://www.w3.org/2000/svg" flood-color="#FF9FF3" flood-opacity="1"/><feComposite xmlns="http://www.w3.org/2000/svg" in2="pf_100_offsetBlur" operator="in" result="pf_100_dropShadow"/><feBlend xmlns="http://www.w3.org/2000/svg" in="SourceGraphic" in2="pf_100_dropShadow" mode="normal"/></filter></defs><g filter="url(#sDgT5ddSKMDUzPpcWG4NAqwYmtUixUez)"><path d=" M 26.97 44.927 L 26.97 44.081 L 25.963 44.081 L 25.963 44.927 L 26.97 44.927 Z " fill="rgb(84,160,255)"/></g><defs><filter id="HoWsvKMN43RNlB2zd6liWnmaDX5tD39N" x="-200%" y="-200%" width="400%" height="400%" filterUnits="objectBoundingBox" color-interpolation-filters="sRGB"><feGaussianBlur xmlns="http://www.w3.org/2000/svg" in="SourceGraphic" stdDeviation="8.157857219394154"/><feOffset xmlns="http://www.w3.org/2000/svg" dx="0" dy="0" result="pf_100_offsetBlur"/><feFlood xmlns="http://www.w3.org/2000/svg" flood-color="#FF9FF3" flood-opacity="1"/><feComposite xmlns="http://www.w3.org/2000/svg" in2="pf_100_offsetBlur" operator="in" result="pf_100_dropShadow"/><feBlend xmlns="http://www.w3.org/2000/svg" in="SourceGraphic" in2="pf_100_dropShadow" mode="normal"/></filter></defs><g filter="url(#HoWsvKMN43RNlB2zd6liWnmaDX5tD39N)"><path d=" M 26.97 42.39 L 26.97 41.545 L 25.963 41.545 L 25.963 42.39 L 26.97 42.39 Z " fill="rgb(84,160,255)"/></g><defs><filter id="slzaJHikYhOvUmZn7DwLnCkvSPyPo6eA" x="-200%" y="-200%" width="400%" height="400%" filterUnits="objectBoundingBox" color-interpolation-filters="sRGB"><feGaussianBlur xmlns="http://www.w3.org/2000/svg" in="SourceGraphic" stdDeviation="8.157857219394154"/><feOffset xmlns="http://www.w3.org/2000/svg" dx="0" dy="0" result="pf_100_offsetBlur"/><feFlood xmlns="http://www.w3.org/2000/svg" flood-color="#FF9FF3" flood-opacity="1"/><feComposite xmlns="http://www.w3.org/2000/svg" in2="pf_100_offsetBlur" operator="in" result="pf_100_dropShadow"/><feBlend xmlns="http://www.w3.org/2000/svg" in="SourceGraphic" in2="pf_100_dropShadow" mode="normal"/></filter></defs><g filter="url(#slzaJHikYhOvUmZn7DwLnCkvSPyPo6eA)"><path d=" M 26.97 39.854 L 26.97 39.008 L 25.963 39.008 L 25.963 39.854 L 26.97 39.854 Z " fill="rgb(84,160,255)"/></g><defs><filter id="FbjGotEBsIJyfymohLdkegvQbH0qEA01" x="-200%" y="-200%" width="400%" height="400%" filterUnits="objectBoundingBox" color-interpolation-filters="sRGB"><feGaussianBlur xmlns="http://www.w3.org/2000/svg" in="SourceGraphic" stdDeviation="8.157857219394154"/><feOffset xmlns="http://www.w3.org/2000/svg" dx="0" dy="0" result="pf_100_offsetBlur"/><feFlood xmlns="http://www.w3.org/2000/svg" flood-color="#FF9FF3" flood-opacity="1"/><feComposite xmlns="http://www.w3.org/2000/svg" in2="pf_100_offsetBlur" operator="in" result="pf_100_dropShadow"/><feBlend xmlns="http://www.w3.org/2000/svg" in="SourceGraphic" in2="pf_100_dropShadow" mode="normal"/></filter></defs><g filter="url(#FbjGotEBsIJyfymohLdkegvQbH0qEA01)"><path d=" M 26.97 37.317 L 26.97 36.472 L 25.963 36.472 L 25.963 37.317 L 26.97 37.317 Z " fill="rgb(84,160,255)"/></g></g></g></g></svg>