<?xml version="1.0" standalone="no"?><!-- Generator: Gravit.io --><svg xmlns="http://www.w3.org/2000/svg" xmlns:xlink="http://www.w3.org/1999/xlink" style="isolation:isolate" viewBox="0 0 64 64" width="64" height="64"><g><rect x="12.94" y="33.962" width="38.785" height="5.541" transform="matrix(1,0,0,1,0,0)" fill="rgb(34,47,62)"/><path d="M 48.226 16.417 L 52.452 16.417 C 52.815 16.417 53.109 16.712 53.109 17.074 L 53.109 51.774 C 53.109 52.137 52.815 52.431 52.452 52.431 L 48.226 52.431 C 47.863 52.431 47.569 52.137 47.569 51.774 L 47.569 17.074 C 47.569 16.712 47.863 16.417 48.226 16.417 Z" style="stroke:none;fill:#222F3E;stroke-miterlimit:10;"/><path d="M 48.226 16.417 L 52.452 16.417 C 52.815 16.417 53.109 16.712 53.109 17.074 L 53.109 51.774 C 53.109 52.137 52.815 52.431 52.452 52.431 L 48.226 52.431 C 47.863 52.431 47.569 52.137 47.569 51.774 L 47.569 17.074 C 47.569 16.712 47.863 16.417 48.226 16.417 Z" style="stroke:none;fill:#222F3E;stroke-miterlimit:10;"/><path d="M 11.548 16.417 L 15.774 16.417 C 16.137 16.417 16.431 16.712 16.431 17.074 L 16.431 51.774 C 16.431 52.137 16.137 52.431 15.774 52.431 L 11.548 52.431 C 11.185 52.431 10.891 52.137 10.891 51.774 L 10.891 17.074 C 10.891 16.712 11.185 16.417 11.548 16.417 Z" style="stroke:none;fill:#222F3E;stroke-miterlimit:10;"/><rect x="12.94" y="41.35" width="38.785" height="2.77" transform="matrix(1,0,0,1,0,0)" fill="rgb(34,47,62)"/><path d="M 20.867 4.412 L 26.251 4.412 C 27.568 4.412 28.638 5.482 28.638 6.799 L 28.638 29.728 C 28.638 31.046 27.568 32.115 26.251 32.115 L 20.867 32.115 C 19.55 32.115 18.48 31.046 18.48 29.728 L 18.48 6.799 C 18.48 5.482 19.55 4.412 20.867 4.412 Z" style="stroke:none;fill:#48DBFB;stroke-miterlimit:10;"/><path d="M 24.932 21.958 L 39.732 21.958 C 39.852 21.958 39.95 22.055 39.95 22.176 L 39.95 58.446 C 39.95 58.567 39.852 58.664 39.732 58.664 L 24.932 58.664 C 24.811 58.664 24.713 58.567 24.713 58.446 L 24.713 22.176 C 24.713 22.055 24.811 21.958 24.932 21.958 Z" style="stroke:none;fill:#48DBFB;stroke-miterlimit:10;"/><path d=" M 25.868 18.495 L 25.868 24.728 L 38.796 24.728 L 38.796 18.495 L 32.332 21.403 L 25.868 18.495 Z " fill="rgb(72,219,251)"/><path d="M 38.413 4.412 L 43.796 4.412 C 45.114 4.412 46.184 5.482 46.184 6.799 L 46.184 29.728 C 46.184 31.046 45.114 32.115 43.796 32.115 L 38.413 32.115 C 37.095 32.115 36.026 31.046 36.026 29.728 L 36.026 6.799 C 36.026 5.482 37.095 4.412 38.413 4.412 Z" style="stroke:none;fill:#48DBFB;stroke-miterlimit:10;"/><path d="M 13.661 18.264 L 13.661 18.264 C 14.115 18.264 14.483 18.632 14.483 19.086 L 14.483 49.762 C 14.483 50.216 14.115 50.584 13.661 50.584 L 13.661 50.584 C 13.207 50.584 12.839 50.216 12.839 49.762 L 12.839 19.086 C 12.839 18.632 13.207 18.264 13.661 18.264 Z" style="stroke:none;fill:#48DBFB;stroke-miterlimit:10;"/><path d="M 50.339 18.264 L 50.339 18.264 C 50.793 18.264 51.161 18.632 51.161 19.086 L 51.161 49.762 C 51.161 50.216 50.793 50.584 50.339 50.584 L 50.339 50.584 C 49.885 50.584 49.517 50.216 49.517 49.762 L 49.517 19.086 C 49.517 18.632 49.885 18.264 50.339 18.264 Z" style="stroke:none;fill:#48DBFB;stroke-miterlimit:10;"/><rect x="23.559" y="18.495" width="2.309" height="40.17" transform="matrix(1,0,0,1,0,0)" fill="rgb(34,47,62)"/><path d="M 29.792 28.422 L 29.792 28.422 C 30.429 28.422 30.947 28.939 30.947 29.576 L 30.947 43.889 C 30.947 44.526 30.429 45.044 29.792 45.044 L 29.792 45.044 C 29.155 45.044 28.638 44.526 28.638 43.889 L 28.638 29.576 C 28.638 28.939 29.155 28.422 29.792 28.422 Z" style="stroke:none;fill:#222F3E;stroke-miterlimit:10;"/><path d="M 34.871 28.422 L 34.871 28.422 C 35.508 28.422 36.026 28.939 36.026 29.576 L 36.026 43.889 C 36.026 44.526 35.508 45.044 34.871 45.044 L 34.871 45.044 C 34.234 45.044 33.717 44.526 33.717 43.889 L 33.717 29.576 C 33.717 28.939 34.234 28.422 34.871 28.422 Z" style="stroke:none;fill:#222F3E;stroke-miterlimit:10;"/><path d="M 21.121 46.891 L 27.613 46.891 C 28.179 46.891 28.638 47.35 28.638 47.916 L 28.638 58.563 C 28.638 59.129 28.179 59.588 27.613 59.588 L 21.121 59.588 C 20.556 59.588 20.096 59.129 20.096 58.563 L 20.096 47.916 C 20.096 47.35 20.556 46.891 21.121 46.891 Z" style="stroke:none;fill:#222F3E;stroke-miterlimit:10;"/><path d="M 37.859 46.891 L 44.35 46.891 C 44.916 46.891 45.376 47.35 45.376 47.916 L 45.376 58.563 C 45.376 59.129 44.916 59.588 44.35 59.588 L 37.859 59.588 C 37.293 59.588 36.834 59.129 36.834 58.563 L 36.834 47.916 C 36.834 47.35 37.293 46.891 37.859 46.891 Z" style="stroke:none;fill:#222F3E;stroke-miterlimit:10;"/><path d="M 20.683 6.259 L 26.436 6.259 C 26.632 6.259 26.791 6.418 26.791 6.614 L 26.791 29.241 C 26.791 29.438 26.632 29.597 26.436 29.597 L 20.683 29.597 C 20.486 29.597 20.327 29.438 20.327 29.241 L 20.327 6.614 C 20.327 6.418 20.486 6.259 20.683 6.259 Z" style="stroke:none;fill:#222F3E;stroke-miterlimit:10;"/><path d="M 38.228 6.259 L 43.981 6.259 C 44.177 6.259 44.337 6.418 44.337 6.614 L 44.337 29.241 C 44.337 29.438 44.177 29.597 43.981 29.597 L 38.228 29.597 C 38.032 29.597 37.873 29.438 37.873 29.241 L 37.873 6.614 C 37.873 6.418 38.032 6.259 38.228 6.259 Z" style="stroke:none;fill:#222F3E;stroke-miterlimit:10;"/><rect x="38.796" y="18.495" width="2.309" height="40.17" transform="matrix(1,0,0,1,0,0)" fill="rgb(34,47,62)"/></g></svg>